HIERARCHY
ROOT Hips
{
	OFFSET 52.337700 -27.696514 86.752289
	CHANNELS 6 Xposition Yposition Zposition Xrotation Yrotation Zrotation
	JOINT spine
	{
		OFFSET 0.000000 -0.393702 6.846367
		CHANNELS 3 Xrotation Yrotation Zrotation
		JOINT spine1
		{
			OFFSET 0.000000 -0.000002 9.496208
			CHANNELS 3 Xrotation Yrotation Zrotation
			JOINT spine2
			{
				OFFSET 0.000000 -0.000002 9.099091
				CHANNELS 3 Xrotation Yrotation Zrotation
				JOINT Neck
				{
					OFFSET 0.000000 -1.113783 23.361206
					CHANNELS 3 Xrotation Yrotation Zrotation
					JOINT Head
					{
						OFFSET 0.000000 0.000000 7.058014
						CHANNELS 3 Xrotation Yrotation Zrotation
						End Site
						{
							OFFSET 0.000000 5.634186 17.084396
						}
					}
				}
				JOINT RightShoulder
				{
					OFFSET -3.831360 0.533491 9.826309
					CHANNELS 3 Xrotation Yrotation Zrotation
					JOINT RightArm
					{
						OFFSET 0.000000 -0.000004 12.888107
						CHANNELS 3 Xrotation Yrotation Zrotation
						JOINT RightArmRoll
						{
							OFFSET 0.000000 0.000000 6.506165
							CHANNELS 3 Xrotation Yrotation Zrotation
							JOINT RightForeArm
							{
								OFFSET 0.000000 -0.000004 18.950104
								CHANNELS 3 Xrotation Yrotation Zrotation
								JOINT RightForeArmRoll
								{
									OFFSET 0.000000 0.000000 7.300919
									CHANNELS 3 Xrotation Yrotation Zrotation
									JOINT RightHand
									{
										OFFSET 0.000000 -0.000004 14.651398
										CHANNELS 3 Xrotation Yrotation Zrotation
										End Site
										{
											OFFSET 0.000000 0.000000 0.100006
										}
									}
								}
							}
						}
					}
				}
				JOINT LeftShoulder
				{
					OFFSET 3.831360 0.533491 9.826309
					CHANNELS 3 Xrotation Yrotation Zrotation
					JOINT LeftArm
					{
						OFFSET 0.000000 -0.000004 12.888107
						CHANNELS 3 Xrotation Yrotation Zrotation
						JOINT LeftArmRoll
						{
							OFFSET 0.000000 0.000000 6.506165
							CHANNELS 3 Xrotation Yrotation Zrotation
							JOINT LeftForeArm
							{
								OFFSET 0.000000 -0.000004 18.950104
								CHANNELS 3 Xrotation Yrotation Zrotation
								JOINT LeftForeArmRoll
								{
									OFFSET 0.000000 0.000000 7.300919
									CHANNELS 3 Xrotation Yrotation Zrotation
									JOINT LeftHand
									{
										OFFSET 0.000000 -0.000004 14.651398
										CHANNELS 3 Xrotation Yrotation Zrotation
										End Site
										{
											OFFSET 0.000000 0.000000 0.100006
										}
									}
								}
							}
						}
					}
				}
			}
		}
	}
	JOINT RightUpLeg
	{
		OFFSET -6.068371 0.933477 -1.112778
		CHANNELS 3 Xrotation Yrotation Zrotation
		JOINT RightUpLegRoll
		{
			OFFSET 0.000000 -0.000004 17.179604
			CHANNELS 3 Xrotation Yrotation Zrotation
			JOINT RightLeg
			{
				OFFSET 0.000000 0.000004 -21.274300
				CHANNELS 3 Xrotation Yrotation Zrotation
				JOINT RightLegRoll
				{
					OFFSET 0.000000 -0.000004 21.343903
					CHANNELS 3 Xrotation Yrotation Zrotation
					JOINT RightFoot
					{
						OFFSET 0.000000 -0.000002 17.765198
						CHANNELS 3 Xrotation Yrotation Zrotation
						JOINT RightToeBase
						{
							OFFSET 0.000000 -0.000004 14.850815
							CHANNELS 3 Xrotation Yrotation Zrotation
							End Site
							{
								OFFSET 0.006294 0.829004 7.192123
							}
						}
					}
				}
			}
		}
	}
	JOINT LeftUpLeg
	{
		OFFSET 6.068371 0.933477 -1.112778
		CHANNELS 3 Xrotation Yrotation Zrotation
		JOINT LeftUpLegRoll
		{
			OFFSET 0.000000 -0.000004 17.179703
			CHANNELS 3 Xrotation Yrotation Zrotation
			JOINT LeftLeg
			{
				OFFSET 0.000000 -0.000004 21.274200
				CHANNELS 3 Xrotation Yrotation Zrotation
				JOINT LeftLegRoll
				{
					OFFSET 0.000000 -0.000002 21.541214
					CHANNELS 3 Xrotation Yrotation Zrotation
					JOINT LeftFoot
					{
						OFFSET 0.000000 -0.000004 17.567902
						CHANNELS 3 Xrotation Yrotation Zrotation
						JOINT LeftToeBase
						{
							OFFSET 0.000000 -0.000002 14.850800
							CHANNELS 3 Xrotation Yrotation Zrotation
							End Site
							{
								OFFSET -0.028210 0.829002 7.192123
							}
						}
					}
				}
			}
		}
	}
}
MOTION
Frames: 11
Frame Time: 0.041667
50.746895 4.699467 50.737530 -13.567568 14.407726 -4.655204 -1.515232 -3.150760 1.903597 1.077744 -6.330970 3.763308 2.725486 -6.285480 3.839026 17.564041 5.737890 -3.955026 9.205448 -3.679043 -3.585428 -18.462485 -56.144729 -21.812945 127.386115 -42.588139 90.186412 0.000010 -0.000002 0.000001 34.080759 -20.781016 11.461933 -0.000008 0.000006 -3.000000 -5.000022 -7.999279 -0.000109 -8.653876 65.995446 10.637650 -54.468190 133.564267 58.109262 -0.000002 0.000001 0.000003 24.885005 26.711062 -6.486765 0.000005 0.000006 2.999999 -5.000389 8.000100 -0.000140 -72.059343 178.295203 12.277488 179.999991 -0.000005 -2.150002 91.388136 -2.574995 -4.420803 0.000002 0.000000 2.045010 66.492295 8.189191 -0.889591 25.456950 -7.355613 0.000002 -81.305691 159.627163 5.723465 -0.000020 -0.000004 -0.360815 -93.722360 -6.119582 -2.271043 -0.000012 -0.000003 -2.647748 67.176577 -7.500061 -0.746050 25.456948 7.355611 -0.000010 
50.706902 4.680573 50.820621 -13.558091 14.408276 -4.675904 -1.513767 -3.150372 1.906798 1.080850 -6.330203 3.769807 2.728582 -6.284646 3.845515 17.587973 5.744188 -3.952920 9.205392 -3.690525 -3.580294 -18.456988 -56.148649 -21.806321 127.372851 -42.563260 90.204915 0.000009 -0.000003 0.000001 34.034372 -20.807721 11.455580 -0.000006 0.000007 -3.000001 -5.000025 -7.999274 -0.000107 -8.661399 66.000466 10.646533 -54.489951 133.580660 58.141070 -0.000003 0.000001 0.000003 24.863045 26.726710 -6.487313 0.000003 0.000008 3.000001 -5.000386 8.000096 -0.000140 -72.059042 178.279945 12.260296 179.999991 -0.000004 -2.149005 91.402773 -2.584814 -4.421349 0.000002 0.000000 2.043360 66.485649 8.189006 -0.886232 25.456955 -7.355614 0.000002 -81.302870 159.615551 5.723446 -0.000020 -0.000004 -0.359108 -93.717456 -6.115415 -2.267649 -0.000012 -0.000003 -2.645768 67.179630 -7.498693 -0.749064 25.456948 7.355615 -0.000012 
50.716003 4.683407 50.806023 -13.546120 14.410436 -4.696741 -1.512870 -3.150265 1.909892 1.082823 -6.329990 3.776029 2.730562 -6.284356 3.851738 17.612283 5.749775 -3.950628 9.204967 -3.701567 -3.575006 -18.451164 -56.153424 -21.799310 127.360024 -42.538637 90.224026 0.000009 -0.000003 -0.000000 33.988657 -20.834099 11.449238 -0.000006 0.000009 -3.000000 -5.000026 -7.999273 -0.000111 -8.668094 66.004517 10.654418 -54.510548 133.596274 58.171820 -0.000003 0.000001 0.000004 24.841811 26.742108 -6.487935 0.000005 0.000007 3.000000 -5.000387 8.000100 -0.000142 -72.060777 178.264577 12.244215 179.999991 -0.000004 -2.149005 91.417280 -2.595935 -4.424896 0.000002 0.000000 2.041640 66.479126 8.188908 -0.882967 25.456952 -7.355615 0.000003 -81.303765 159.604377 5.725729 -0.000020 -0.000005 -0.357275 -93.713289 -6.111252 -2.266295 -0.000012 -0.000003 -2.643760 67.182670 -7.497255 -0.752266 25.456952 7.355613 -0.000009 
50.742805 4.725803 50.732529 -13.532469 14.413765 -4.717660 -1.512356 -3.150345 1.912896 1.084019 -6.330167 3.782084 2.731747 -6.284447 3.857783 17.636783 5.754868 -3.948197 9.204302 -3.712295 -3.569596 -18.445184 -56.158635 -21.792057 127.346664 -42.514765 90.242399 0.000011 -0.000003 -0.000000 33.943250 -20.860407 11.442914 -0.000008 0.000008 -3.000000 -5.000024 -7.999283 -0.000109 -8.674187 66.007795 10.661562 -54.530246 133.611259 58.201825 -0.000003 0.000001 0.000003 24.821239 26.757392 -6.488695 0.000003 0.000008 3.000001 -5.000387 8.000097 -0.000142 -72.064151 178.249045 12.229157 179.999991 -0.000004 -2.147994 91.431692 -2.607779 -4.427418 0.000002 -0.000001 2.039880 66.472842 8.188868 -0.879908 25.456952 -7.355613 0.000003 -81.307030 159.593544 5.728869 -0.000020 -0.000004 -0.355356 -93.709615 -6.107164 -2.265967 -0.000012 -0.000003 -2.641716 67.185702 -7.495808 -0.755464 25.456953 7.355613 -0.000010 
50.732697 4.715042 50.761520 -13.517816 14.417740 -4.738634 -1.512064 -3.150524 1.915848 1.084767 -6.330555 3.788025 2.732485 -6.284775 3.863730 17.661370 5.759686 -3.945695 9.203478 -3.722847 -3.564125 -18.438828 -56.164212 -21.784426 127.332676 -42.491566 90.259761 0.000009 -0.000004 -0.000000 33.898096 -20.886485 11.436521 -0.000006 0.000007 -2.999999 -5.000025 -7.999277 -0.000109 -8.679948 66.010691 10.668308 -54.549518 133.625944 58.231311 -0.000001 0.000001 0.000003 24.800996 26.772620 -6.489509 0.000002 0.000006 3.000000 -5.000386 8.000096 -0.000141 -72.068331 178.233595 12.214162 179.999991 -0.000005 -2.146997 91.445988 -2.620114 -4.431922 0.000002 0.000001 2.038090 66.466558 8.188826 -0.876846 25.456952 -7.355613 0.000002 -81.312022 159.582643 5.733822 -0.000020 -0.000004 -0.353385 -93.706145 -6.103176 -2.264654 -0.000012 -0.000003 -2.639659 67.188728 -7.494329 -0.758659 25.456953 7.355612 -0.000008 
50.753902 4.704197 50.738327 -13.502975 14.421914 -4.759601 -1.511834 -3.150736 1.918796 1.085400 -6.331003 3.793933 2.733118 -6.285151 3.869647 17.685964 5.764444 -3.943167 9.202628 -3.733360 -3.558642 -18.432652 -56.169772 -21.776912 127.319412 -42.467767 90.278319 0.000010 -0.000001 0.000003 33.853064 -20.912620 11.430186 -0.000007 0.000008 -2.999999 -5.000026 -7.999275 -0.000110 -8.685632 66.013498 10.674951 -54.568584 133.640492 58.260653 -0.000001 0.000001 0.000003 24.780731 26.787749 -6.490239 0.000003 0.000006 3.000000 -5.000389 8.000100 -0.000143 -72.072819 178.218186 12.199146 179.999991 -0.000004 -2.146000 91.460304 -2.632542 -4.435437 0.000002 -0.000000 2.036300 66.460295 8.188861 -0.873970 25.456953 -7.355613 0.000001 -81.317138 159.572029 5.738113 -0.000020 -0.000004 -0.351401 -93.702785 -6.099121 -2.263332 -0.000012 -0.000003 -2.637598 67.191631 -7.492840 -0.762062 25.456952 7.355613 -0.000009 
50.751900 4.711281 50.742924 -13.488524 14.425778 -4.780567 -1.511496 -3.150886 1.921771 1.086258 -6.331342 3.799904 2.733965 -6.285417 3.875614 17.710552 5.769334 -3.940698 9.201836 -3.743961 -3.553182 -18.426457 -56.175307 -21.769457 127.306161 -42.443960 90.296884 0.000007 -0.000003 0.000001 33.807824 -20.938807 11.423746 -0.000006 0.000008 -3.000002 -5.000028 -7.999273 -0.000106 -8.691477 66.016490 10.681805 -54.587944 133.655273 58.290310 0.000001 0.000001 0.000003 24.760365 26.802991 -6.490995 0.000004 0.000009 3.000000 -5.000390 8.000096 -0.000141 -72.076698 178.203037 12.183135 179.999991 -0.000005 -2.146000 91.474627 -2.644726 -4.438966 0.000002 -0.000000 2.034510 66.453923 8.188848 -0.870797 25.456955 -7.355613 0.000001 -81.321742 159.561197 5.742603 -0.000020 -0.000006 -0.349443 -93.699158 -6.095113 -2.261013 -0.000012 -0.000003 -2.635549 67.194657 -7.491356 -0.765253 25.456953 7.355615 -0.000010 
50.747795 4.728443 50.737324 -13.475360 14.428686 -4.801482 -1.510872 -3.150906 1.924804 1.087676 -6.331409 3.806003 2.735385 -6.285409 3.881719 17.734960 5.774588 -3.938320 9.201245 -3.754788 -3.547811 -18.420431 -56.180434 -21.762188 127.292719 -42.420027 90.315141 0.000010 -0.000002 -0.000001 33.762359 -20.965051 11.417236 -0.000007 0.000006 -3.000001 -5.000022 -7.999275 -0.000109 -8.697775 66.020062 10.689197 -54.607885 133.670477 58.320458 -0.000004 0.000001 0.000003 24.739558 26.818319 -6.491641 0.000004 0.000009 3.000001 -5.000388 8.000096 -0.000143 -72.079615 178.187464 12.168025 179.999991 -0.000005 -2.145002 91.489052 -2.656375 -4.441477 0.000002 -0.000000 2.032760 66.447618 8.188761 -0.867744 25.456952 -7.355613 0.000002 -81.324112 159.550282 5.744975 -0.000020 -0.000004 -0.347546 -93.695374 -6.091076 -2.260683 -0.000012 -0.000003 -2.633521 67.197696 -7.489914 -0.768457 25.456953 7.355613 -0.000010 
50.754795 4.727970 50.735321 -13.464192 14.430404 -4.822247 -1.509805 -3.150718 1.927918 1.090001 -6.331024 3.812311 2.737696 -6.284948 3.888020 17.759182 5.780399 -3.936124 9.200931 -3.765958 -3.542567 -18.414624 -56.184887 -21.755209 127.279687 -42.395285 90.334163 0.000012 -0.000001 0.000002 33.716293 -20.991598 11.410640 -0.000006 0.000008 -3.000000 -5.000024 -7.999278 -0.000110 -8.704735 66.024406 10.697381 -54.628751 133.686323 58.351590 -0.000002 0.000001 0.000003 24.718113 26.833853 -6.492196 0.000004 0.000007 3.000001 -5.000387 8.000096 -0.000141 -72.080735 178.172055 12.151869 179.999991 -0.000005 -2.144005 91.503607 -2.667120 -4.443999 0.000002 -0.000000 2.031070 66.441089 8.188620 -0.864486 25.456948 -7.355616 0.000002 -81.324098 159.538958 5.747092 -0.000020 -0.000004 -0.345752 -93.691064 -6.086895 -2.259305 -0.000012 -0.000003 -2.631522 67.200742 -7.488508 -0.771563 25.456950 7.355615 -0.000011 
50.761501 4.723640 50.740421 -13.455695 14.430212 -4.842892 -1.508121 -3.150232 1.931164 1.093548 -6.330047 3.818915 2.741233 -6.283890 3.894608 17.783029 5.787003 -3.934134 9.201026 -3.777606 -3.537500 -18.409322 -56.188473 -21.748811 127.266368 -42.370368 90.352693 0.000011 -0.000004 -0.000000 33.669646 -21.018459 11.403982 -0.000007 0.000005 -3.000001 -5.000026 -7.999275 -0.000109 -8.712638 66.029904 10.706723 -54.650915 133.703098 58.383856 -0.000001 0.000001 0.000003 24.695802 26.849646 -6.492610 0.000004 0.000008 3.000001 -5.000387 8.000096 -0.000143 -72.079437 178.156701 12.134657 179.999991 -0.000004 -2.142994 91.518340 -2.676605 -4.444516 0.000002 -0.000000 2.029450 66.434327 8.188418 -0.861023 25.456953 -7.355614 0.000002 -81.319542 159.527278 5.745447 -0.000020 -0.000004 -0.344094 -93.685962 -6.082613 -2.255904 -0.000012 -0.000003 -2.629548 67.203898 -7.487155 -0.774574 25.456950 7.355613 -0.000009 
50.765205 4.729851 50.737232 -13.450677 14.427672 -4.863354 -1.505649 -3.149363 1.934573 1.098656 -6.328288 3.825894 2.746342 -6.282045 3.901561 17.806505 5.794586 -3.932454 9.201627 -3.789871 -3.532667 -18.404626 -56.191031 -21.743141 127.253241 -42.344499 90.371565 0.000012 -0.000002 0.000002 33.622112 -21.045778 11.397232 -0.000006 0.000007 -3.000001 -5.000026 -7.999276 -0.000110 -8.721723 66.036844 10.717487 -54.676399 133.719873 58.419933 -0.000000 0.000001 0.000004 24.672416 26.865736 -6.492846 0.000003 0.000009 3.000001 -5.000388 8.000098 -0.000142 -72.075011 178.141647 12.115454 179.999991 -0.000004 -2.142994 91.533237 -2.684477 -4.445073 0.000002 -0.000000 2.027920 66.427401 8.188045 -0.857386 25.456947 -7.355614 0.000003 -81.310308 159.515025 5.742006 -0.000020 -0.000005 -0.342613 -93.679965 -6.078277 -2.252440 -0.000012 -0.000003 -2.627639 67.207094 -7.485877 -0.777499 25.456952 7.355611 -0.000009 
